<?xml version="1.0" encoding="utf-8"?>
<!-- Generator: Adobe Illustrator 27.5.0, SVG Export Plug-In . SVG Version: 6.00 Build 0)  -->
<svg version="1.1" xmlns="http://www.w3.org/2000/svg" xmlns:xlink="http://www.w3.org/1999/xlink" x="0px" y="0px"
	 viewBox="0 0 750 500" style="enable-background:new 0 0 750 500;" xml:space="preserve">
<g id="BACKGROUND">
	<rect style="fill:#FFFFFF;" width="750" height="500"/>
</g>
<g id="OBJECTS">
	<g>
		<g>
			<g>
				
					<linearGradient id="SVGID_1_" gradientUnits="userSpaceOnUse" x1="159.3942" y1="223.4878" x2="617.8366" y2="223.4878" gradientTransform="matrix(0.9962 -0.0868 0.0868 0.9962 -21.1879 34.1294)">
					<stop  offset="0" style="stop-color:#FFEFD7"/>
					<stop  offset="1" style="stop-color:#FFDCA8"/>
				</linearGradient>
				<path style="fill:url(#SVGID_1_);" d="M163.076,238.732c6.089,12.606,20.641,18.54,34.178,22.106
					c13.538,3.565,28.053,5.986,38.898,14.839c7.572,6.182,12.544,14.886,18.035,22.973c14.491,21.345,34.18,39.817,58.195,49.245
					s52.598,8.872,74.446-4.849c11.026-6.925,19.872-16.733,29.151-25.867c13.4-13.189,29.093-25.698,47.747-28.051
					c11.949-1.507,23.963,1.32,35.965,2.329c29.854,2.511,104.378-6.694,113.999-44.873c1.657-6.574,2.741-13.387,2.034-20.129
					c-1.764-16.823-14.823-30.998-30.359-37.689c-15.535-6.691-33.147-6.893-49.903-4.576c-7.505,1.038-15.042,2.562-22.593,1.944
					c-5.478-0.448-10.818-2.021-15.898-4.119c-13.505-5.577-25.4-14.993-33.928-26.857c-10.848-15.09-16.438-34.07-30.111-46.658
					c-12.455-11.466-30.484-15.944-47.239-13.516c-16.755,2.427-32.185,11.279-44.242,23.164
					c-7.047,6.947-13.248,15.084-21.942,19.811c-13.602,7.397-30.413,4.914-45.164,0.209c-14.751-4.706-29.172-11.488-44.637-12.224
					c-10.676-0.508-21.48,1.987-30.852,7.126C186.599,139.791,131.94,174.269,163.076,238.732z"/>
				
					<linearGradient id="SVGID_00000021822774069435380920000013448486381017049787_" gradientUnits="userSpaceOnUse" x1="424.3228" y1="419.6738" x2="343.9479" y2="180.559">
					<stop  offset="0" style="stop-color:#FFEFD7"/>
					<stop  offset="1" style="stop-color:#FFDCA8"/>
				</linearGradient>
				<path style="fill:url(#SVGID_00000021822774069435380920000013448486381017049787_);" d="M197.254,260.838
					c13.538,3.565,28.053,5.986,38.898,14.839c7.572,6.182,12.544,14.886,18.035,22.973c14.491,21.345,34.18,39.817,58.195,49.245
					s52.598,8.872,74.446-4.849c11.026-6.925,19.872-16.733,29.151-25.867c13.4-13.189,29.093-25.698,47.747-28.051
					c11.949-1.507,23.963,1.32,35.964,2.329c18.026,1.516,52.335-1.243,78.812-12.069c-14.28-3.748-29.607-3.496-44.334-1.459
					c-8.236,1.139-16.508,2.812-24.795,2.133c-6.012-0.492-11.872-2.217-17.448-4.52c-14.821-6.121-27.875-16.454-37.234-29.474
					c-11.905-16.561-18.04-37.391-33.046-51.205c-13.669-12.584-33.455-17.497-51.843-14.833
					c-18.388,2.664-35.322,12.379-48.554,25.422c-7.734,7.624-14.54,16.554-24.08,21.742c-14.928,8.117-33.377,5.393-49.565,0.229
					c-16.188-5.164-32.015-12.608-48.987-13.415c-11.717-0.557-23.573,2.181-33.859,7.82c-1.667,0.914-4.051,2.298-6.88,4.152
					c1.365,4.114,3.075,8.361,5.197,12.753C169.165,251.338,183.717,257.272,197.254,260.838z"/>
			</g>
			<path style="fill:none;stroke:#FFFFFF;stroke-miterlimit:10;" d="M141.762,211.011c5.974,12.369,20.253,18.193,33.537,21.691
				c13.283,3.498,27.527,5.874,38.168,14.561c7.43,6.066,12.309,14.606,17.697,22.542c14.219,20.944,33.539,39.07,57.103,48.321
				c23.564,9.251,51.611,8.706,73.049-4.758c10.82-6.795,19.499-16.419,28.604-25.382c13.148-12.942,28.547-25.216,46.851-27.525
				c11.725-1.479,23.513,1.295,35.29,2.285c29.294,2.464,102.419-6.569,111.86-44.031c1.625-6.45,2.689-13.136,1.996-19.752
				c-1.731-16.507-14.545-30.416-29.789-36.981c-15.244-6.565-32.525-6.764-48.966-4.49c-7.364,1.019-14.759,2.514-22.169,1.908
				c-5.375-0.44-10.615-1.983-15.6-4.042c-13.251-5.473-24.923-14.712-33.291-26.353c-10.644-14.807-16.129-33.431-29.546-45.782
				c-12.222-11.251-29.912-15.644-46.353-13.262c-16.44,2.382-31.582,11.068-43.412,22.73c-6.915,6.816-13,14.801-21.53,19.439
				c-13.347,7.258-29.842,4.822-44.316,0.205c-14.474-4.617-28.624-11.272-43.8-11.994c-10.476-0.498-21.076,1.95-30.273,6.992
				C164.843,113.927,111.21,147.757,141.762,211.011z"/>
		</g>
		<g>
			<g>
				
					<linearGradient id="SVGID_00000018239472726311269600000001428108226812093625_" gradientUnits="userSpaceOnUse" x1="166.0821" y1="97.562" x2="167.5628" y2="131.988">
					<stop  offset="0" style="stop-color:#0E052B"/>
					<stop  offset="1" style="stop-color:#27078A"/>
				</linearGradient>
				<path style="fill:url(#SVGID_00000018239472726311269600000001428108226812093625_);" d="M181.306,130.441
					c0,8.019-6.183,14.52-13.81,14.52c-7.627,0-13.81-6.501-13.81-14.52c0-8.019,5.735-12.436,13.362-12.436
					C174.676,118.005,181.306,122.421,181.306,130.441z"/>
				<g>
					
						<linearGradient id="SVGID_00000061472586051469560680000008390487768688721829_" gradientUnits="userSpaceOnUse" x1="144.9636" y1="342.5254" x2="144.9636" y2="368.1766">
						<stop  offset="0" style="stop-color:#FFEFB4"/>
						<stop  offset="1" style="stop-color:#FF9F33"/>
					</linearGradient>
					<path style="fill:url(#SVGID_00000061472586051469560680000008390487768688721829_);" d="M133.648,362.956
						c0,0-1.665,1.022-1.933,1.38c-0.268,0.358-0.57,3.814,5.294,2.33c0,0,3.008,0.526,6.909-1.262
						c3.901-1.788,10.59,0.608,13.319-1.545c2.729-2.152-0.421-5.444-1.262-7.655c-0.328-0.861-0.666-8.701-0.666-8.701
						l-8.453,1.644c0,0,0.231,6.418-0.776,7.202c-1.007,0.785-7.532,4.145-8.338,4.474
						C136.936,361.154,135.524,361.933,133.648,362.956z"/>
					
						<linearGradient id="SVGID_00000002343327581056218950000002782752978794504588_" gradientUnits="userSpaceOnUse" x1="482.674" y1="342.5254" x2="482.674" y2="368.1766" gradientTransform="matrix(-1 0 0 1 673.2031 0)">
						<stop  offset="0" style="stop-color:#FFEFB4"/>
						<stop  offset="1" style="stop-color:#FF9F33"/>
					</linearGradient>
					<path style="fill:url(#SVGID_00000002343327581056218950000002782752978794504588_);" d="M201.844,362.956
						c0,0,1.665,1.022,1.933,1.38c0.268,0.358,0.57,3.814-5.294,2.33c0,0-3.008,0.526-6.909-1.262
						c-3.901-1.788-10.59,0.608-13.319-1.545c-2.729-2.152,0.421-5.444,1.262-7.655c0.328-0.861,0.666-8.701,0.666-8.701
						l8.453,1.644c0,0-0.231,6.418,0.776,7.202c1.007,0.785,7.532,4.145,8.338,4.474
						C198.556,361.154,199.968,361.933,201.844,362.956z"/>
					
						<linearGradient id="SVGID_00000131359752906860865650000015004864105866390662_" gradientUnits="userSpaceOnUse" x1="132.9942" y1="155.4295" x2="131.7003" y2="246.6482">
						<stop  offset="0" style="stop-color:#FFEFB4"/>
						<stop  offset="1" style="stop-color:#FF9F33"/>
					</linearGradient>
					<path style="fill:url(#SVGID_00000131359752906860865650000015004864105866390662_);" d="M127.928,194.141
						c0,0-4.744,26.459-2.18,42.804c0,0-1.818,17.483,4.807,24.037c0,0,1.602,0,1.282-3.205c0,0,2.564,5.769,4.166,3.205
						c1.602-2.564-7.408-9.82-5.128-12.82c2.883-3.794,3.205,8.974,4.807,4.807c1.603-4.166-4.807-16.986-4.807-16.986
						s11.615-34.664,7.769-44.279L127.928,194.141z"/>
					
						<linearGradient id="SVGID_00000045609290386331833990000011185344471289986713_" gradientUnits="userSpaceOnUse" x1="203.8893" y1="156.4933" x2="202.596" y2="247.6618">
						<stop  offset="0" style="stop-color:#FFEFB4"/>
						<stop  offset="1" style="stop-color:#FF9F33"/>
					</linearGradient>
					<path style="fill:url(#SVGID_00000045609290386331833990000011185344471289986713_);" d="M207.386,194.141
						c0,0,4.745,26.459,2.181,42.804c0,0,1.818,17.483-4.807,24.037c0,0-1.602,0-1.282-3.205c0,0-2.564,5.769-4.166,3.205
						c-1.603-2.564,7.408-9.82,5.128-12.82c-2.883-3.794-3.205,8.974-4.807,4.807c-1.603-4.166,4.807-16.986,4.807-16.986
						s-11.615-34.664-7.769-44.279L207.386,194.141z"/>
					
						<linearGradient id="SVGID_00000058591342823436567400000004689264056653061514_" gradientUnits="userSpaceOnUse" x1="167.62" y1="188.7526" x2="167.62" y2="324.7285">
						<stop  offset="0" style="stop-color:#0E052B"/>
						<stop  offset="1" style="stop-color:#27078A"/>
					</linearGradient>
					<path style="fill:url(#SVGID_00000058591342823436567400000004689264056653061514_);" d="M190.607,283.632
						c3.471-28.638-3.113-56.342-3.113-56.342h-39.674c0,0-6.584,27.704-3.113,56.342c0,0-3.403,40.787,1.853,67.799
						c0,0,6.567,2.955,8.866-0.657c0,0,4.755-34.054,5.589-61.933c0.091-3.056,0.284-6.103,1.472-8.92
						c1.913-4.535,4.783-11.929,6.419-18.9c1.094,7.528,3.288,15.249,4.658,19.633c0.758,2.428,0.776,4.967,0.794,7.51
						c0.207,29.454,5.532,62.61,5.532,62.61c2.299,3.612,8.866,0.657,8.866,0.657C193.441,329.363,190.607,283.632,190.607,283.632z
						"/>
					
						<linearGradient id="SVGID_00000065041485704483538770000009927852064245629059_" gradientUnits="userSpaceOnUse" x1="172.9969" y1="254.6631" x2="160.6251" y2="114.4508">
						<stop  offset="0" style="stop-color:#FF7B00"/>
						<stop  offset="1" style="stop-color:#F50000"/>
					</linearGradient>
					<path style="fill:url(#SVGID_00000065041485704483538770000009927852064245629059_);" d="M191.292,162.595
						c-4.144-4.23-15.483-6.932-15.483-6.932l-8.152,0.978l-7.262-1.024c0,0-13.941,3.81-17.323,8.059
						c-0.405,0.509-8.358,6.745-15.144,30.465l11.739,3.913c0,0,2.861-7.941,6.793-14.565c0,0,3.968,34.67,1.359,43.801
						c0,0,0.718,0.335,1.989,0.825c11.478,4.417,24.217,4.417,35.696,0c1.271-0.489,1.989-0.825,1.989-0.825
						c-2.609-9.131,1.359-43.801,1.359-43.801c3.409,5.315,6.793,14.565,6.793,14.565l11.739-3.913
						C201.378,169.562,191.905,163.221,191.292,162.595z"/>
					
						<linearGradient id="SVGID_00000064346455933233745010000016388593239805532571_" gradientUnits="userSpaceOnUse" x1="158.4275" y1="134.7989" x2="171.7613" y2="165.6571">
						<stop  offset="0" style="stop-color:#0E052B"/>
						<stop  offset="1" style="stop-color:#27078A"/>
					</linearGradient>
					<path style="fill:url(#SVGID_00000064346455933233745010000016388593239805532571_);" d="M156.058,158.585
						c1.431,3.779,9.012,4.788,13.266,4.788c2.792,0,9.465-0.391,11.109-4.014c0.262-0.578,0.435-1.34,0.282-2.26
						c-2.763-0.925-4.907-1.436-4.907-1.436l-8.152,0.978l-7.262-1.024c0,0-1.944,0.532-4.556,1.419
						C155.789,157.629,155.894,158.153,156.058,158.585z"/>
					
						<linearGradient id="SVGID_00000145060780202210795010000007561731458094992527_" gradientUnits="userSpaceOnUse" x1="161.0619" y1="141.1894" x2="170.8873" y2="163.9281">
						<stop  offset="0" style="stop-color:#FFEFB4"/>
						<stop  offset="1" style="stop-color:#FF9F33"/>
					</linearGradient>
					<path style="fill:url(#SVGID_00000145060780202210795010000007561731458094992527_);" d="M160.119,155.653
						c1.455-1.286,3.368-3.54,3.95-6.838h10.109c0,0-0.577,3.537,2.515,7.073C184.573,164.902,151.539,163.235,160.119,155.653z"/>
					
						<linearGradient id="SVGID_00000002385475897897349390000003460093930811668103_" gradientUnits="userSpaceOnUse" x1="160.3052" y1="85.2265" x2="169.754" y2="161.8119">
						<stop  offset="0" style="stop-color:#FFEFB4"/>
						<stop  offset="1" style="stop-color:#FF9F33"/>
					</linearGradient>
					<path style="opacity:0.65;fill:url(#SVGID_00000002385475897897349390000003460093930811668103_);" d="M174.179,148.815H164.07
						c-0.266,1.509-0.817,2.79-1.47,3.869c1.315,0.994,2.87,1.858,4.722,2.523c0.905,0.325,1.904,0.31,2.793-0.056
						c1.136-0.468,2.785-1.363,4.449-2.981C173.95,150.233,174.179,148.815,174.179,148.815z"/>
					
						<linearGradient id="SVGID_00000057830192981377856200000013628697725163093152_" gradientUnits="userSpaceOnUse" x1="168.7565" y1="182.1997" x2="167.5096" y2="126.9207">
						<stop  offset="0" style="stop-color:#FFEFB4"/>
						<stop  offset="1" style="stop-color:#FF9F33"/>
					</linearGradient>
					<path style="fill:url(#SVGID_00000057830192981377856200000013628697725163093152_);" d="M181.646,131.772
						c-0.736-1.141-1.584,0.086-1.87,0.074c-0.671-1.934-2.944-10.69-12.878-10.206c-7.32,0.357-10.755,8.246-10.755,8.246
						s0.002,1.462-0.099,2.689c-0.43-0.548-1.221-1.571-2.129-0.803c-1.832,1.55-0.2,8.026,2.88,9.486
						c1.319,4.37,4.257,8.847,10.525,11.099c0.905,0.325,1.904,0.31,2.793-0.056c2.396-0.987,7.077-3.837,9.36-11.482
						C182.085,138.796,182.843,133.628,181.646,131.772z"/>
					<path style="opacity:0.6;fill:#FFFFFF;" d="M166.754,239.263c0,0-3.819,17.061-0.583,31.051
						c1.027-2.988,2.003-6.182,2.733-9.293C168.904,261.021,165.035,252.33,166.754,239.263z"/>
					<path style="opacity:0.55;fill:#FFFFFF;" d="M148.98,213.082c-0.114-0.044-0.219-0.085-0.324-0.126
						c0.035,1.389,0.053,2.743,0.05,4.041c0.09,0.035,0.177,0.07,0.273,0.107c9.016,3.47,28.337,3.47,37.353,0
						c0.096-0.037,0.183-0.072,0.273-0.107c-0.003-1.298,0.015-2.652,0.05-4.041c-0.105,0.041-0.209,0.082-0.323,0.126
						C177.317,216.551,157.996,216.551,148.98,213.082z"/>
					<path style="opacity:0.55;fill:#FFFFFF;" d="M148.658,202.295c-0.191-0.074-0.365-0.142-0.531-0.208
						c0.093,1.382,0.18,2.786,0.256,4.192c0.091,0.036,0.178,0.07,0.275,0.107c9.171,3.529,28.827,3.529,37.998,0
						c0.097-0.037,0.184-0.072,0.275-0.107c0.077-1.405,0.163-2.809,0.257-4.192c-0.166,0.066-0.34,0.135-0.531,0.208
						C177.484,205.825,157.829,205.825,148.658,202.295z"/>
					
						<linearGradient id="SVGID_00000158030626650529593210000005901265016645164990_" gradientUnits="userSpaceOnUse" x1="151.8328" y1="243.7492" x2="150.7715" y2="231.7207" gradientTransform="matrix(0.9464 0.323 -0.323 0.9464 67.982 -79.4226)">
						<stop  offset="0" style="stop-color:#0E052B"/>
						<stop  offset="1" style="stop-color:#27078A"/>
					</linearGradient>
					<path style="fill:url(#SVGID_00000158030626650529593210000005901265016645164990_);" d="M127.928,194.141l11.739,3.913
						c0,0,0.361-0.999,0.994-2.567l-11.913-4.101C128.473,192.28,128.199,193.191,127.928,194.141z"/>
					
						<linearGradient id="SVGID_00000094594510482338424180000017885259699085060224_" gradientUnits="userSpaceOnUse" x1="547.739" y1="109.6208" x2="546.4909" y2="95.4759" gradientTransform="matrix(-0.9464 0.323 0.323 0.9464 685.578 -79.4226)">
						<stop  offset="0" style="stop-color:#0E052B"/>
						<stop  offset="1" style="stop-color:#27078A"/>
					</linearGradient>
					<path style="fill:url(#SVGID_00000094594510482338424180000017885259699085060224_);" d="M207.386,194.141
						c-0.274-1.122-0.558-2.193-0.846-3.241l-11.853,4.671c0.6,1.502,0.959,2.483,0.959,2.483L207.386,194.141z"/>
				</g>
				
					<linearGradient id="SVGID_00000096757324049350063850000013895592034702113959_" gradientUnits="userSpaceOnUse" x1="168.124" y1="98.6745" x2="168.0005" y2="136.3086">
					<stop  offset="0" style="stop-color:#0E052B"/>
					<stop  offset="1" style="stop-color:#27078A"/>
				</linearGradient>
				<path style="fill:url(#SVGID_00000096757324049350063850000013895592034702113959_);" d="M169.576,119.196
					c-9.034-0.739-15.634,3.906-13.206,17.604l1.768-7.663c0.276-1.194,1.547-1.869,2.685-1.414
					c2.886,1.154,8.333,2.501,13.928-0.519c1.115-0.602,2.502,0.012,2.846,1.231c0.554,1.965,1.249,4.843,1.558,7.821l1.015-5.382
					C180.171,130.874,178.61,119.935,169.576,119.196z"/>
				
					<linearGradient id="SVGID_00000034050663838124996660000014882387026262110355_" gradientUnits="userSpaceOnUse" x1="167.3726" y1="98.6722" x2="167.2492" y2="136.3062">
					<stop  offset="0" style="stop-color:#0E052B"/>
					<stop  offset="1" style="stop-color:#27078A"/>
				</linearGradient>
				<path style="fill:url(#SVGID_00000034050663838124996660000014882387026262110355_);" d="M156.693,122.323
					c0,0-1.855-5.301,0.928-7.156c0,0,7.024,4.241,12.988,2.12c5.964-2.12,9.542,5.566,7.156,7.289
					C176.508,125.484,159.874,127.624,156.693,122.323z"/>
			</g>
			<g>
				
					<linearGradient id="SVGID_00000139281937015600862390000006389553511842473867_" gradientUnits="userSpaceOnUse" x1="271.1906" y1="96.6974" x2="272.6713" y2="131.1234">
					<stop  offset="0" style="stop-color:#0E052B"/>
					<stop  offset="1" style="stop-color:#27078A"/>
				</linearGradient>
				<path style="fill:url(#SVGID_00000139281937015600862390000006389553511842473867_);" d="M286.415,129.576
					c0,8.019-6.183,14.52-13.81,14.52c-7.627,0-13.81-6.501-13.81-14.52c0-8.019,5.735-12.436,13.362-12.436
					S286.415,121.557,286.415,129.576z"/>
				<g>
					
						<linearGradient id="SVGID_00000140700619189225107430000002611734436313287333_" gradientUnits="userSpaceOnUse" x1="250.0721" y1="342.5254" x2="250.0721" y2="368.1766">
						<stop  offset="0" style="stop-color:#FFEFB4"/>
						<stop  offset="1" style="stop-color:#FF9F33"/>
					</linearGradient>
					<path style="fill:url(#SVGID_00000140700619189225107430000002611734436313287333_);" d="M238.757,362.956
						c0,0-1.665,1.022-1.933,1.38c-0.268,0.358-0.57,3.814,5.294,2.33c0,0,3.008,0.526,6.909-1.262
						c3.901-1.788,10.59,0.608,13.319-1.545c2.729-2.152-0.421-5.444-1.262-7.655c-0.328-0.861-0.667-8.701-0.667-8.701
						l-8.453,1.644c0,0,0.231,6.418-0.776,7.202c-1.007,0.785-7.532,4.145-8.338,4.474
						C242.045,361.154,240.633,361.933,238.757,362.956z"/>
					
						<linearGradient id="SVGID_00000007424419510125033830000000791926443152621991_" gradientUnits="userSpaceOnUse" x1="377.5656" y1="342.5254" x2="377.5656" y2="368.1766" gradientTransform="matrix(-1 0 0 1 673.2031 0)">
						<stop  offset="0" style="stop-color:#FFEFB4"/>
						<stop  offset="1" style="stop-color:#FF9F33"/>
					</linearGradient>
					<path style="fill:url(#SVGID_00000007424419510125033830000000791926443152621991_);" d="M306.953,362.956
						c0,0,1.665,1.022,1.933,1.38c0.268,0.358,0.57,3.814-5.294,2.33c0,0-3.008,0.526-6.909-1.262
						c-3.901-1.788-10.59,0.608-13.319-1.545c-2.729-2.152,0.421-5.444,1.262-7.655c0.328-0.861,0.666-8.701,0.666-8.701
						l8.453,1.644c0,0-0.231,6.418,0.776,7.202c1.007,0.785,7.532,4.145,8.338,4.474
						C303.665,361.154,305.077,361.933,306.953,362.956z"/>
					
						<linearGradient id="SVGID_00000077315892632070643210000013628945648995932306_" gradientUnits="userSpaceOnUse" x1="238.2081" y1="155.9583" x2="236.9206" y2="246.724">
						<stop  offset="0" style="stop-color:#FFEFB4"/>
						<stop  offset="1" style="stop-color:#FF9F33"/>
					</linearGradient>
					<path style="fill:url(#SVGID_00000077315892632070643210000013628945648995932306_);" d="M233.036,194.141
						c0,0-4.745,26.459-2.18,42.804c0,0-1.818,17.483,4.807,24.037c0,0,1.602,0,1.282-3.205c0,0,2.564,5.769,4.166,3.205
						c1.602-2.564-7.408-9.82-5.128-12.82c2.883-3.794,3.205,8.974,4.807,4.807c1.602-4.166-4.807-16.986-4.807-16.986
						s11.85-34.313,8.004-43.928L233.036,194.141z"/>
					
						<linearGradient id="SVGID_00000136396394345816415190000008135324019741142702_" gradientUnits="userSpaceOnUse" x1="308.9978" y1="156.4933" x2="307.7046" y2="247.6618">
						<stop  offset="0" style="stop-color:#FFEFB4"/>
						<stop  offset="1" style="stop-color:#FF9F33"/>
					</linearGradient>
					<path style="fill:url(#SVGID_00000136396394345816415190000008135324019741142702_);" d="M312.494,194.141
						c0,0,4.744,26.459,2.18,42.804c0,0,1.818,17.483-4.807,24.037c0,0-1.602,0-1.282-3.205c0,0-2.564,5.769-4.167,3.205
						c-1.602-2.564,7.408-9.82,5.128-12.82c-2.883-3.794-3.205,8.974-4.807,4.807c-1.602-4.166,4.807-16.986,4.807-16.986
						s-11.615-34.664-7.769-44.279L312.494,194.141z"/>
					
						<linearGradient id="SVGID_00000174562194732051119800000009052294728207915155_" gradientUnits="userSpaceOnUse" x1="272.7651" y1="188.7526" x2="272.7651" y2="324.7285">
						<stop  offset="0" style="stop-color:#0E052B"/>
						<stop  offset="1" style="stop-color:#27078A"/>
					</linearGradient>
					<path style="fill:url(#SVGID_00000174562194732051119800000009052294728207915155_);" d="M295.715,283.632
						c3.47-28.638,0.345-56.342,0.345-56.342H249.47c0,0-3.125,27.704,0.345,56.342c0,0-3.403,40.787,1.853,67.799
						c0,0,6.567,2.955,8.866-0.657c0,0,4.755-34.054,5.589-61.933c0.091-3.056,0.284-6.103,1.472-8.92
						c1.913-4.535,4.783-11.929,6.419-18.9c1.094,7.528,3.288,15.249,4.658,19.633c0.758,2.428,0.776,4.967,0.794,7.51
						c0.207,29.454,5.532,62.61,5.532,62.61c2.299,3.612,8.866,0.657,8.866,0.657C298.549,329.363,295.715,283.632,295.715,283.632z
						"/>
					
						<linearGradient id="SVGID_00000023267619154012518540000004249887744697765781_" gradientUnits="userSpaceOnUse" x1="278.1426" y1="255.084" x2="265.6116" y2="113.0676">
						<stop  offset="0" style="stop-color:#FF7B00"/>
						<stop  offset="1" style="stop-color:#F50000"/>
					</linearGradient>
					<path style="fill:url(#SVGID_00000023267619154012518540000004249887744697765781_);" d="M296.4,161.731
						c-4.144-4.23-15.483-6.932-15.483-6.932l-8.152,0.978l-7.262-1.024c0,0-13.94,3.81-17.323,8.059
						c-0.398,0.5-8.235,7.181-15.144,31.329l11.74,3.913c0,0,2.861-7.941,6.793-14.565c0,0,0.51,34.67-2.099,43.801
						c0,0,0.718,0.335,1.989,0.825c11.478,4.417,31.134,4.417,42.612,0c1.272-0.489,1.989-0.825,1.989-0.825
						c-2.609-9.131-2.099-43.801-2.099-43.801c3.409,5.315,6.793,14.565,6.793,14.565l11.74-3.913
						C306.292,168.767,297.112,162.457,296.4,161.731z"/>
					
						<linearGradient id="SVGID_00000145047786455847376050000007320971849263265978_" gradientUnits="userSpaceOnUse" x1="251.2717" y1="209.3391" x2="250.2803" y2="198.1046" gradientTransform="matrix(0.9464 0.323 -0.323 0.9464 67.982 -79.4226)">
						<stop  offset="0" style="stop-color:#0E052B"/>
						<stop  offset="1" style="stop-color:#27078A"/>
					</linearGradient>
					<path style="fill:url(#SVGID_00000145047786455847376050000007320971849263265978_);" d="M233.036,194.141l11.74,3.913
						c0,0,0.369-1.022,1.021-2.635l-11.94-4.075C233.585,192.248,233.312,193.176,233.036,194.141z"/>
					
						<linearGradient id="SVGID_00000099650628738031492170000009054260258666208417_" gradientUnits="userSpaceOnUse" x1="448.1648" y1="142.3926" x2="447.1735" y2="131.1582" gradientTransform="matrix(-0.9464 0.323 0.323 0.9464 685.578 -79.4226)">
						<stop  offset="0" style="stop-color:#0E052B"/>
						<stop  offset="1" style="stop-color:#27078A"/>
					</linearGradient>
					<path style="fill:url(#SVGID_00000099650628738031492170000009054260258666208417_);" d="M312.494,194.141
						c-0.23-0.942-0.461-1.848-0.691-2.732l-12.03,4.105c0.613,1.534,0.982,2.54,0.982,2.54L312.494,194.141z"/>
					
						<linearGradient id="SVGID_00000179635892507233704560000004934032584619648952_" gradientUnits="userSpaceOnUse" x1="263.5359" y1="133.9341" x2="276.8698" y2="164.7926">
						<stop  offset="0" style="stop-color:#0E052B"/>
						<stop  offset="1" style="stop-color:#27078A"/>
					</linearGradient>
					<path style="fill:url(#SVGID_00000179635892507233704560000004934032584619648952_);" d="M261.166,157.721
						c1.431,3.779,9.012,4.788,13.266,4.788c2.793,0,9.465-0.391,11.109-4.014c0.263-0.578,0.435-1.34,0.282-2.26
						c-2.763-0.925-4.907-1.436-4.907-1.436l-8.152,0.978l-7.262-1.024c0,0-1.944,0.532-4.556,1.419
						C260.898,156.765,261.002,157.288,261.166,157.721z"/>
					
						<linearGradient id="SVGID_00000034801087410035621900000010203989180370500787_" gradientUnits="userSpaceOnUse" x1="266.1705" y1="140.3249" x2="275.9958" y2="163.0635">
						<stop  offset="0" style="stop-color:#FFEFB4"/>
						<stop  offset="1" style="stop-color:#FF9F33"/>
					</linearGradient>
					<path style="fill:url(#SVGID_00000034801087410035621900000010203989180370500787_);" d="M265.228,154.788
						c1.455-1.286,3.368-3.54,3.95-6.838h10.109c0,0-0.577,3.537,2.515,7.073C289.681,164.038,256.648,162.37,265.228,154.788z"/>
					
						<linearGradient id="SVGID_00000079488403478878393260000015956498438295880848_" gradientUnits="userSpaceOnUse" x1="265.4138" y1="84.3628" x2="274.8625" y2="160.9472">
						<stop  offset="0" style="stop-color:#FFEFB4"/>
						<stop  offset="1" style="stop-color:#FF9F33"/>
					</linearGradient>
					<path style="opacity:0.65;fill:url(#SVGID_00000079488403478878393260000015956498438295880848_);" d="M279.287,147.951
						h-10.109c-0.266,1.509-0.817,2.789-1.47,3.869c1.315,0.994,2.87,1.857,4.722,2.523c0.905,0.325,1.904,0.31,2.793-0.057
						c1.136-0.468,2.785-1.363,4.449-2.981C279.059,149.369,279.287,147.951,279.287,147.951z"/>
					
						<linearGradient id="SVGID_00000104682877339012191480000014873834237608539308_" gradientUnits="userSpaceOnUse" x1="273.865" y1="181.3352" x2="272.6181" y2="126.0562">
						<stop  offset="0" style="stop-color:#FFEFB4"/>
						<stop  offset="1" style="stop-color:#FF9F33"/>
					</linearGradient>
					<path style="fill:url(#SVGID_00000104682877339012191480000014873834237608539308_);" d="M286.755,130.907
						c-0.736-1.141-1.583,0.086-1.87,0.074c-0.671-1.934-2.944-10.69-12.878-10.205c-7.32,0.357-10.755,8.246-10.755,8.246
						s0.002,1.462-0.099,2.689c-0.43-0.548-1.221-1.571-2.129-0.803c-1.832,1.55-0.2,8.026,2.88,9.486
						c1.319,4.37,4.257,8.847,10.525,11.099c0.905,0.325,1.904,0.31,2.793-0.056c2.396-0.987,7.077-3.837,9.36-11.482
						C287.193,137.932,287.952,132.763,286.755,130.907z"/>
					<path style="opacity:0.6;fill:#FFFFFF;" d="M271.863,239.263c0,0-3.819,17.061-0.583,31.051
						c1.027-2.988,2.003-6.182,2.733-9.293C274.013,261.021,270.143,252.33,271.863,239.263z"/>
					<path style="opacity:0.55;fill:#FFFFFF;" d="M251.104,213.249c-0.072,1.353-0.155,2.671-0.248,3.934
						c9.138,3.361,34.681,3.362,43.819,0c-0.094-1.263-0.176-2.581-0.248-3.934C285.168,216.492,260.363,216.492,251.104,213.249z"
						/>
					<path style="opacity:0.55;fill:#FFFFFF;" d="M251.482,202.695c-0.029,1.342-0.065,2.701-0.108,4.059
						c9.633,3.038,33.148,3.038,42.781,0c-0.043-1.358-0.078-2.717-0.108-4.059C284.386,205.689,261.145,205.689,251.482,202.695z"
						/>
				</g>
				
					<linearGradient id="SVGID_00000145025304031377275920000009735507868274813850_" gradientUnits="userSpaceOnUse" x1="273.2325" y1="97.81" x2="273.109" y2="135.4441">
					<stop  offset="0" style="stop-color:#0E052B"/>
					<stop  offset="1" style="stop-color:#27078A"/>
				</linearGradient>
				<path style="fill:url(#SVGID_00000145025304031377275920000009735507868274813850_);" d="M274.685,118.331
					c-9.034-0.739-15.635,3.906-13.206,17.604l1.768-7.663c0.276-1.194,1.547-1.869,2.685-1.414
					c2.886,1.154,8.333,2.501,13.928-0.519c1.115-0.602,2.502,0.011,2.846,1.231c0.554,1.965,1.249,4.843,1.558,7.821l1.015-5.382
					C285.28,130.009,283.719,119.071,274.685,118.331z"/>
				
					<linearGradient id="SVGID_00000140722121177372121940000010568957387326708883_" gradientUnits="userSpaceOnUse" x1="272.4811" y1="97.8074" x2="272.3577" y2="135.4418">
					<stop  offset="0" style="stop-color:#0E052B"/>
					<stop  offset="1" style="stop-color:#27078A"/>
				</linearGradient>
				<path style="fill:url(#SVGID_00000140722121177372121940000010568957387326708883_);" d="M261.802,121.459
					c0,0-1.855-5.301,0.928-7.157c0,0,7.024,4.241,12.988,2.12c5.964-2.12,9.542,5.566,7.156,7.289
					C281.616,124.62,264.983,126.76,261.802,121.459z"/>
			</g>
			<g>
				
					<linearGradient id="SVGID_00000065772843110156672360000018372050470565410700_" gradientUnits="userSpaceOnUse" x1="373.9897" y1="96.6974" x2="375.4704" y2="131.1234">
					<stop  offset="0" style="stop-color:#0E052B"/>
					<stop  offset="1" style="stop-color:#27078A"/>
				</linearGradient>
				<path style="fill:url(#SVGID_00000065772843110156672360000018372050470565410700_);" d="M389.214,129.576
					c0,8.019-6.183,14.52-13.81,14.52s-13.81-6.501-13.81-14.52c0-8.019,5.735-12.436,13.362-12.436
					S389.214,121.557,389.214,129.576z"/>
				<g>
					
						<linearGradient id="SVGID_00000181066943185785118960000000802368089777358740_" gradientUnits="userSpaceOnUse" x1="352.8712" y1="342.5254" x2="352.8712" y2="368.1766">
						<stop  offset="0" style="stop-color:#FFEFB4"/>
						<stop  offset="1" style="stop-color:#FF9F33"/>
					</linearGradient>
					<path style="fill:url(#SVGID_00000181066943185785118960000000802368089777358740_);" d="M341.556,362.956
						c0,0-1.665,1.022-1.933,1.38c-0.268,0.358-0.57,3.814,5.294,2.33c0,0,3.008,0.526,6.909-1.262
						c3.901-1.788,10.59,0.608,13.319-1.545c2.729-2.152-0.421-5.444-1.262-7.655c-0.328-0.861-0.666-8.701-0.666-8.701
						l-8.453,1.644c0,0,0.231,6.418-0.776,7.202s-7.532,4.145-8.338,4.474C344.844,361.154,343.432,361.933,341.556,362.956z"/>
					
						<linearGradient id="SVGID_00000049192201954912379920000008641584961267446167_" gradientUnits="userSpaceOnUse" x1="274.7665" y1="342.5254" x2="274.7665" y2="368.1766" gradientTransform="matrix(-1 0 0 1 673.2031 0)">
						<stop  offset="0" style="stop-color:#FFEFB4"/>
						<stop  offset="1" style="stop-color:#FF9F33"/>
					</linearGradient>
					<path style="fill:url(#SVGID_00000049192201954912379920000008641584961267446167_);" d="M409.752,362.956
						c0,0,1.665,1.022,1.933,1.38c0.268,0.358,0.57,3.814-5.294,2.33c0,0-3.008,0.526-6.909-1.262
						c-3.901-1.788-10.59,0.608-13.319-1.545c-2.729-2.152,0.421-5.444,1.262-7.655c0.328-0.861,0.667-8.701,0.667-8.701
						l8.453,1.644c0,0-0.231,6.418,0.776,7.202s7.532,4.145,8.338,4.474C406.464,361.154,407.876,361.933,409.752,362.956z"/>
					
						<linearGradient id="SVGID_00000094599101515328519070000005588531397481012113_" gradientUnits="userSpaceOnUse" x1="340.9018" y1="155.4295" x2="339.6078" y2="246.6482">
						<stop  offset="0" style="stop-color:#FFEFB4"/>
						<stop  offset="1" style="stop-color:#FF9F33"/>
					</linearGradient>
					<path style="fill:url(#SVGID_00000094599101515328519070000005588531397481012113_);" d="M335.835,194.141
						c0,0-4.744,26.459-2.181,42.804c0,0-1.817,17.483,4.807,24.037c0,0,1.602,0,1.282-3.205c0,0,2.564,5.769,4.166,3.205
						c1.603-2.564-7.408-9.82-5.128-12.82c2.883-3.794,3.205,8.974,4.808,4.807c1.602-4.166-4.808-16.986-4.808-16.986
						s11.615-34.664,7.769-44.279L335.835,194.141z"/>
					
						<linearGradient id="SVGID_00000071533801855980407470000018111227581785481406_" gradientUnits="userSpaceOnUse" x1="411.7968" y1="156.4933" x2="410.5036" y2="247.6618">
						<stop  offset="0" style="stop-color:#FFEFB4"/>
						<stop  offset="1" style="stop-color:#FF9F33"/>
					</linearGradient>
					<path style="fill:url(#SVGID_00000071533801855980407470000018111227581785481406_);" d="M415.293,194.141
						c0,0,4.745,26.459,2.181,42.804c0,0,1.818,17.483-4.807,24.037c0,0-1.603,0-1.282-3.205c0,0-2.564,5.769-4.166,3.205
						c-1.603-2.564,7.408-9.82,5.128-12.82c-2.883-3.794-3.205,8.974-4.807,4.807c-1.602-4.166,4.807-16.986,4.807-16.986
						s-11.615-34.664-7.769-44.279L415.293,194.141z"/>
					
						<linearGradient id="SVGID_00000023274496802764724020000012232779386524765354_" gradientUnits="userSpaceOnUse" x1="375.2411" y1="188.7526" x2="375.2411" y2="324.7285">
						<stop  offset="0" style="stop-color:#0E052B"/>
						<stop  offset="1" style="stop-color:#27078A"/>
					</linearGradient>
					<path style="fill:url(#SVGID_00000023274496802764724020000012232779386524765354_);" d="M398.514,283.632
						c5.545-30.33,3.803-56.342,3.803-56.342h-53.507c-1.997,4.455-0.675,31.223,3.803,56.342c0,0-5.45,39.99,1.853,67.799
						c0,0,6.567,2.955,8.866-0.657c4.809-34.441,4.756-34.092,5.589-61.933c0.091-3.056,0.284-6.103,1.472-8.92
						c1.913-4.535,4.783-11.929,6.419-18.9c1.094,7.528,3.288,15.249,4.658,19.633c0.758,2.428,0.776,4.967,0.794,7.51
						c0.207,29.461,0.184,29.309,5.532,62.61c2.299,3.612,8.866,0.657,8.866,0.657C402.798,327.266,398.514,283.632,398.514,283.632
						z"/>
					
						<linearGradient id="SVGID_00000141415805820928640190000008083046559764490649_" gradientUnits="userSpaceOnUse" x1="380.9583" y1="255.274" x2="368.4037" y2="112.9896">
						<stop  offset="0" style="stop-color:#FF7B00"/>
						<stop  offset="1" style="stop-color:#F50000"/>
					</linearGradient>
					<path style="fill:url(#SVGID_00000141415805820928640190000008083046559764490649_);" d="M399.199,161.731
						c-4.144-4.23-15.483-6.932-15.483-6.932l-8.152,0.978l-7.262-1.024c0,0-13.941,3.81-17.323,8.059
						c-0.398,0.5-8.235,7.181-15.144,31.329l11.74,3.913c0,0,4.81-5.255,6.793-14.565c0,0-2.949,34.67-5.557,43.801
						c0,0,0.718,0.335,1.989,0.825c11.478,4.417,38.05,4.417,49.528,0c1.272-0.489,1.989-0.825,1.989-0.825
						c-2.609-9.131-5.557-43.801-5.557-43.801c1.449,8.152,6.793,14.565,6.793,14.565l11.74-3.913
						C409.091,168.767,399.911,162.457,399.199,161.731z"/>
					
						<linearGradient id="SVGID_00000173138047933663342880000010944952136075118006_" gradientUnits="userSpaceOnUse" x1="366.3349" y1="133.9341" x2="379.6689" y2="164.7926">
						<stop  offset="0" style="stop-color:#0E052B"/>
						<stop  offset="1" style="stop-color:#27078A"/>
					</linearGradient>
					<path style="fill:url(#SVGID_00000173138047933663342880000010944952136075118006_);" d="M363.965,157.721
						c1.431,3.779,9.012,4.788,13.266,4.788c2.792,0,9.465-0.391,11.11-4.014c0.263-0.578,0.435-1.34,0.282-2.26
						c-2.763-0.925-4.907-1.436-4.907-1.436l-8.152,0.978l-7.262-1.024c0,0-1.944,0.532-4.556,1.419
						C363.697,156.765,363.802,157.288,363.965,157.721z"/>
					
						<linearGradient id="SVGID_00000116193859534697618100000004657499965786531975_" gradientUnits="userSpaceOnUse" x1="368.9695" y1="140.3249" x2="378.7948" y2="163.0635">
						<stop  offset="0" style="stop-color:#FFEFB4"/>
						<stop  offset="1" style="stop-color:#FF9F33"/>
					</linearGradient>
					<path style="fill:url(#SVGID_00000116193859534697618100000004657499965786531975_);" d="M368.027,154.788
						c1.455-1.286,3.368-3.54,3.95-6.838h10.109c0,0-0.577,3.537,2.515,7.073C392.48,164.038,359.447,162.37,368.027,154.788z"/>
					
						<linearGradient id="SVGID_00000126297198855144564000000004516882349666017699_" gradientUnits="userSpaceOnUse" x1="368.2128" y1="84.3627" x2="377.6616" y2="160.9473">
						<stop  offset="0" style="stop-color:#FFEFB4"/>
						<stop  offset="1" style="stop-color:#FF9F33"/>
					</linearGradient>
					<path style="opacity:0.65;fill:url(#SVGID_00000126297198855144564000000004516882349666017699_);" d="M382.086,147.951
						h-10.109c-0.266,1.509-0.817,2.789-1.47,3.869c1.315,0.994,2.87,1.857,4.722,2.523c0.905,0.325,1.904,0.31,2.793-0.057
						c1.136-0.468,2.785-1.363,4.449-2.981C381.858,149.369,382.086,147.951,382.086,147.951z"/>
					
						<linearGradient id="SVGID_00000094613385142366457470000007631555922637218718_" gradientUnits="userSpaceOnUse" x1="376.664" y1="181.3352" x2="375.4171" y2="126.0562">
						<stop  offset="0" style="stop-color:#FFEFB4"/>
						<stop  offset="1" style="stop-color:#FF9F33"/>
					</linearGradient>
					<path style="fill:url(#SVGID_00000094613385142366457470000007631555922637218718_);" d="M389.554,130.907
						c-0.736-1.141-1.583,0.086-1.87,0.074c-0.671-1.934-2.944-10.69-12.878-10.205c-7.32,0.357-10.755,8.246-10.755,8.246
						s0.002,1.462-0.099,2.689c-0.43-0.548-1.221-1.571-2.129-0.803c-1.832,1.55-0.2,8.026,2.88,9.486
						c1.319,4.37,4.257,8.847,10.525,11.099c0.905,0.325,1.904,0.31,2.793-0.056c2.396-0.987,7.077-3.837,9.36-11.482
						C389.992,137.932,390.751,132.763,389.554,130.907z"/>
					<path style="opacity:0.6;fill:#FFFFFF;" d="M374.662,239.263c0,0-3.819,17.061-0.583,31.051
						c1.027-2.988,2.003-6.182,2.733-9.293C376.812,261.021,372.942,252.33,374.662,239.263z"/>
					
						<linearGradient id="SVGID_00000066496242444807366910000009994067856161862806_" gradientUnits="userSpaceOnUse" x1="348.993" y1="176.0969" x2="348.0017" y2="164.8624" gradientTransform="matrix(0.9464 0.323 -0.323 0.9464 67.982 -79.4226)">
						<stop  offset="0" style="stop-color:#0E052B"/>
						<stop  offset="1" style="stop-color:#27078A"/>
					</linearGradient>
					<path style="fill:url(#SVGID_00000066496242444807366910000009994067856161862806_);" d="M335.835,194.141l11.74,3.913
						c0,0,0.811-0.895,1.9-2.575l-12.81-4.132C336.387,192.254,336.11,193.179,335.835,194.141z"/>
					
						<linearGradient id="SVGID_00000025400441406242024540000012311135551353942174_" gradientUnits="userSpaceOnUse" x1="351.2717" y1="175.5618" x2="350.2804" y2="164.3271" gradientTransform="matrix(-0.9464 0.323 0.323 0.9464 685.578 -79.4226)">
						<stop  offset="0" style="stop-color:#0E052B"/>
						<stop  offset="1" style="stop-color:#27078A"/>
					</linearGradient>
					<path style="fill:url(#SVGID_00000025400441406242024540000012311135551353942174_);" d="M415.293,194.141
						c-0.229-0.938-0.464-1.842-0.701-2.729l-12.827,4.151c1.026,1.576,1.788,2.491,1.788,2.491L415.293,194.141z"/>
					<path style="opacity:0.55;fill:#FFFFFF;" d="M351.203,213.488c-0.174,1.325-0.351,2.616-0.53,3.852
						c9.559,3.148,40.224,3.148,49.783,0c-0.179-1.236-0.356-2.527-0.53-3.852C390.081,216.411,361.047,216.411,351.203,213.488z"/>
					<path style="opacity:0.55;fill:#FFFFFF;" d="M352.441,203.121c-0.145,1.319-0.296,2.652-0.451,3.983
						c10.336,2.568,36.812,2.568,47.148,0c-0.155-1.331-0.306-2.664-0.451-3.983C388.236,205.544,362.892,205.544,352.441,203.121z"
						/>
				</g>
				
					<linearGradient id="SVGID_00000125594810027238495290000003362565515748229552_" gradientUnits="userSpaceOnUse" x1="376.0315" y1="97.81" x2="375.9081" y2="135.4441">
					<stop  offset="0" style="stop-color:#0E052B"/>
					<stop  offset="1" style="stop-color:#27078A"/>
				</linearGradient>
				<path style="fill:url(#SVGID_00000125594810027238495290000003362565515748229552_);" d="M377.484,118.331
					c-9.034-0.739-15.635,3.906-13.206,17.604l1.768-7.663c0.276-1.194,1.547-1.869,2.685-1.414
					c2.886,1.154,8.333,2.501,13.928-0.519c1.115-0.602,2.502,0.011,2.846,1.231c0.554,1.965,1.249,4.843,1.558,7.821l1.015-5.382
					C388.079,130.009,386.518,119.071,377.484,118.331z"/>
				
					<linearGradient id="SVGID_00000079455875956459140410000005251243861295926973_" gradientUnits="userSpaceOnUse" x1="375.2802" y1="97.8074" x2="375.1567" y2="135.4418">
					<stop  offset="0" style="stop-color:#0E052B"/>
					<stop  offset="1" style="stop-color:#27078A"/>
				</linearGradient>
				<path style="fill:url(#SVGID_00000079455875956459140410000005251243861295926973_);" d="M364.601,121.459
					c0,0-1.855-5.301,0.928-7.157c0,0,7.024,4.241,12.988,2.12c5.964-2.12,9.542,5.566,7.156,7.289
					C384.415,124.62,367.782,126.76,364.601,121.459z"/>
			</g>
			<g>
				
					<linearGradient id="SVGID_00000121995576500682779740000004771447440156318130_" gradientUnits="userSpaceOnUse" x1="477.3552" y1="96.6974" x2="478.8359" y2="131.1234">
					<stop  offset="0" style="stop-color:#0E052B"/>
					<stop  offset="1" style="stop-color:#27078A"/>
				</linearGradient>
				<path style="fill:url(#SVGID_00000121995576500682779740000004771447440156318130_);" d="M492.58,129.576
					c0,8.019-6.183,14.52-13.81,14.52c-7.627,0-13.81-6.501-13.81-14.52c0-8.019,5.735-12.436,13.362-12.436
					C485.949,117.14,492.58,121.557,492.58,129.576z"/>
				<g>
					
						<linearGradient id="SVGID_00000039134530877744727250000015717644861151686787_" gradientUnits="userSpaceOnUse" x1="456.2367" y1="342.5254" x2="456.2367" y2="368.1766">
						<stop  offset="0" style="stop-color:#FFEFB4"/>
						<stop  offset="1" style="stop-color:#FF9F33"/>
					</linearGradient>
					<path style="fill:url(#SVGID_00000039134530877744727250000015717644861151686787_);" d="M444.921,362.956
						c0,0-1.665,1.022-1.933,1.38c-0.268,0.358-0.57,3.814,5.294,2.33c0,0,3.008,0.526,6.909-1.262
						c3.901-1.788,10.59,0.608,13.319-1.545c2.729-2.152-0.421-5.444-1.262-7.655c-0.328-0.861-0.666-8.701-0.666-8.701
						l-8.453,1.644c0,0,0.231,6.418-0.776,7.202c-1.007,0.785-7.532,4.145-8.338,4.474
						C448.209,361.154,446.798,361.933,444.921,362.956z"/>
					
						<linearGradient id="SVGID_00000179645973872718495210000002119120394676417693_" gradientUnits="userSpaceOnUse" x1="171.4009" y1="342.5254" x2="171.4009" y2="368.1766" gradientTransform="matrix(-1 0 0 1 673.2031 0)">
						<stop  offset="0" style="stop-color:#FFEFB4"/>
						<stop  offset="1" style="stop-color:#FF9F33"/>
					</linearGradient>
					<path style="fill:url(#SVGID_00000179645973872718495210000002119120394676417693_);" d="M513.117,362.956
						c0,0,1.665,1.022,1.933,1.38c0.268,0.358,0.57,3.814-5.294,2.33c0,0-3.008,0.526-6.909-1.262
						c-3.901-1.788-10.59,0.608-13.319-1.545c-2.729-2.152,0.421-5.444,1.262-7.655c0.328-0.861,0.666-8.701,0.666-8.701
						l8.453,1.644c0,0-0.231,6.418,0.776,7.202c1.007,0.785,7.532,4.145,8.338,4.474
						C509.83,361.154,511.241,361.933,513.117,362.956z"/>
					
						<linearGradient id="SVGID_00000018925245687184098540000009104783776427773352_" gradientUnits="userSpaceOnUse" x1="444.2674" y1="155.4295" x2="442.9734" y2="246.6482">
						<stop  offset="0" style="stop-color:#FFEFB4"/>
						<stop  offset="1" style="stop-color:#FF9F33"/>
					</linearGradient>
					<path style="fill:url(#SVGID_00000018925245687184098540000009104783776427773352_);" d="M439.201,194.141
						c0,0-4.745,26.459-2.181,42.804c0,0-1.818,17.483,4.807,24.037c0,0,1.603,0,1.282-3.205c0,0,2.564,5.769,4.166,3.205
						c1.602-2.564-7.408-9.82-5.128-12.82c2.883-3.794,3.205,8.974,4.807,4.807c1.603-4.166-4.807-16.986-4.807-16.986
						s11.615-34.664,7.769-44.279L439.201,194.141z"/>
					
						<linearGradient id="SVGID_00000103266568356547413100000008172831946031669170_" gradientUnits="userSpaceOnUse" x1="515.1624" y1="156.4933" x2="513.8692" y2="247.6618">
						<stop  offset="0" style="stop-color:#FFEFB4"/>
						<stop  offset="1" style="stop-color:#FF9F33"/>
					</linearGradient>
					<path style="fill:url(#SVGID_00000103266568356547413100000008172831946031669170_);" d="M518.659,194.141
						c0,0,4.744,26.459,2.18,42.804c0,0,1.818,17.483-4.807,24.037c0,0-1.602,0-1.282-3.205c0,0-2.564,5.769-4.167,3.205
						c-1.602-2.564,7.408-9.82,5.128-12.82c-2.883-3.794-3.205,8.974-4.807,4.807c-1.602-4.166,4.807-16.986,4.807-16.986
						s-11.615-34.664-7.769-44.279L518.659,194.141z"/>
					
						<linearGradient id="SVGID_00000005985629071710920240000009109278256233612682_" gradientUnits="userSpaceOnUse" x1="478.88" y1="188.7526" x2="478.88" y2="324.7285">
						<stop  offset="0" style="stop-color:#0E052B"/>
						<stop  offset="1" style="stop-color:#27078A"/>
					</linearGradient>
					<path style="fill:url(#SVGID_00000005985629071710920240000009109278256233612682_);" d="M504.474,283.632
						c5.545-30.33,4.668-56.342,4.668-56.342h-59.698c-1.996,4.455-0.536,31.223,3.942,56.342c0,0-2.856,39.99,4.447,67.799
						c0,0,6.567,2.955,8.866-0.657c4.809-34.441,7.35-34.092,8.182-61.933c0.091-3.056,0.284-6.103,1.472-8.92
						c1.913-4.535,2.19-11.929,3.825-18.9c1.094,7.528,0.695,15.249,2.064,19.633c0.758,2.428,0.776,4.967,0.794,7.51
						c0.207,29.461,2.777,29.309,8.126,62.61c2.299,3.612,8.866,0.657,8.866,0.657C506.163,327.266,504.474,283.632,504.474,283.632
						z"/>
					
						<linearGradient id="SVGID_00000106868061664497685070000008928554768435629702_" gradientUnits="userSpaceOnUse" x1="484.3447" y1="255.5094" x2="471.7608" y2="112.8929">
						<stop  offset="0" style="stop-color:#FF7B00"/>
						<stop  offset="1" style="stop-color:#F50000"/>
					</linearGradient>
					<path style="fill:url(#SVGID_00000106868061664497685070000008928554768435629702_);" d="M502.565,161.731
						c-4.144-4.23-15.483-6.932-15.483-6.932l-8.152,0.978l-7.262-1.024c0,0-13.941,3.81-17.323,8.059
						c-0.398,0.5-12.462,4.128-15.144,31.329l11.74,3.913c0,0,4.81-5.255,6.793-14.565c0,0-5.681,34.67-8.29,43.801
						c0,0,0.718,0.335,1.989,0.825c11.478,4.417,44.241,4.417,55.719,0c1.271-0.489,1.989-0.825,1.989-0.825
						c-2.609-9.131-9.015-43.801-9.015-43.801c1.449,8.152,6.793,14.565,6.793,14.565l11.74-3.913
						C516.218,169.11,503.277,162.457,502.565,161.731z"/>
					
						<linearGradient id="SVGID_00000021092188207015072860000009765537318067184819_" gradientUnits="userSpaceOnUse" x1="469.7005" y1="133.9341" x2="483.0344" y2="164.7926">
						<stop  offset="0" style="stop-color:#0E052B"/>
						<stop  offset="1" style="stop-color:#27078A"/>
					</linearGradient>
					<path style="fill:url(#SVGID_00000021092188207015072860000009765537318067184819_);" d="M467.331,157.721
						c1.431,3.779,9.012,4.788,13.266,4.788c2.792,0,9.465-0.391,11.109-4.014c0.263-0.578,0.435-1.34,0.282-2.26
						c-2.763-0.925-4.906-1.436-4.906-1.436l-8.152,0.978l-7.262-1.024c0,0-1.944,0.532-4.556,1.419
						C467.062,156.765,467.167,157.288,467.331,157.721z"/>
					
						<linearGradient id="SVGID_00000039828320661470240790000003846564889150274944_" gradientUnits="userSpaceOnUse" x1="472.3351" y1="140.3249" x2="482.1604" y2="163.0635">
						<stop  offset="0" style="stop-color:#FFEFB4"/>
						<stop  offset="1" style="stop-color:#FF9F33"/>
					</linearGradient>
					<path style="fill:url(#SVGID_00000039828320661470240790000003846564889150274944_);" d="M471.393,154.788
						c1.455-1.286,3.368-3.54,3.95-6.838h10.109c0,0-0.577,3.537,2.515,7.073C495.846,164.038,462.813,162.37,471.393,154.788z"/>
					
						<linearGradient id="SVGID_00000104702255234394571840000002803687103907222457_" gradientUnits="userSpaceOnUse" x1="471.5784" y1="84.3627" x2="481.0271" y2="160.9473">
						<stop  offset="0" style="stop-color:#FFEFB4"/>
						<stop  offset="1" style="stop-color:#FF9F33"/>
					</linearGradient>
					<path style="opacity:0.65;fill:url(#SVGID_00000104702255234394571840000002803687103907222457_);" d="M485.452,147.951
						h-10.109c-0.266,1.509-0.817,2.789-1.47,3.869c1.315,0.994,2.87,1.857,4.722,2.523c0.905,0.325,1.904,0.31,2.793-0.057
						c1.136-0.468,2.785-1.363,4.449-2.981C485.224,149.369,485.452,147.951,485.452,147.951z"/>
					
						<linearGradient id="SVGID_00000042001820100216419470000013048260207272895146_" gradientUnits="userSpaceOnUse" x1="480.0296" y1="181.3352" x2="478.7827" y2="126.0562">
						<stop  offset="0" style="stop-color:#FFEFB4"/>
						<stop  offset="1" style="stop-color:#FF9F33"/>
					</linearGradient>
					<path style="fill:url(#SVGID_00000042001820100216419470000013048260207272895146_);" d="M492.92,130.907
						c-0.736-1.141-1.584,0.086-1.87,0.074c-0.671-1.934-2.944-10.69-12.878-10.205c-7.32,0.357-10.754,8.246-10.754,8.246
						s0.002,1.462-0.099,2.689c-0.431-0.548-1.221-1.571-2.129-0.803c-1.832,1.55-0.2,8.026,2.88,9.486
						c1.319,4.37,4.257,8.847,10.525,11.099c0.905,0.325,1.904,0.31,2.793-0.056c2.396-0.987,7.077-3.837,9.36-11.482
						C493.358,137.932,494.116,132.763,492.92,130.907z"/>
					
						<linearGradient id="SVGID_00000165192078680758837850000013554251744745868173_" gradientUnits="userSpaceOnUse" x1="446.6391" y1="142.6862" x2="445.6596" y2="131.5847" gradientTransform="matrix(0.9464 0.323 -0.323 0.9464 67.982 -79.4226)">
						<stop  offset="0" style="stop-color:#0E052B"/>
						<stop  offset="1" style="stop-color:#27078A"/>
					</linearGradient>
					<path style="fill:url(#SVGID_00000165192078680758837850000013554251744745868173_);" d="M439.201,194.141l11.739,3.913
						c0,0,0.811-0.895,1.9-2.575c0,0,0,0,0,0l-13.32-4.116C439.404,192.262,439.295,193.183,439.201,194.141z"/>
					
						<linearGradient id="SVGID_00000152977382976245841000000003242369773144924065_" gradientUnits="userSpaceOnUse" x1="253.2757" y1="208.9318" x2="252.2932" y2="197.7976" gradientTransform="matrix(-0.9464 0.323 0.323 0.9464 685.578 -79.4226)">
						<stop  offset="0" style="stop-color:#0E052B"/>
						<stop  offset="1" style="stop-color:#27078A"/>
					</linearGradient>
					<path style="fill:url(#SVGID_00000152977382976245841000000003242369773144924065_);" d="M505.131,195.562
						c0.049,0.076,0.095,0.143,0.143,0.215c0.1,0.151,0.198,0.299,0.292,0.436c0.062,0.091,0.121,0.176,0.18,0.261
						c0.076,0.109,0.149,0.214,0.219,0.312c0.051,0.072,0.104,0.147,0.152,0.213c0.08,0.11,0.153,0.209,0.222,0.303
						c0.062,0.084,0.118,0.159,0.172,0.229c0.05,0.066,0.102,0.134,0.143,0.187c0.032,0.041,0.06,0.077,0.087,0.111
						c0.034,0.043,0.068,0.087,0.092,0.116c0.014,0.018,0.032,0.04,0.043,0.053c0.02,0.025,0.043,0.053,0.043,0.053l11.74-3.913
						c-0.091-0.936-0.202-1.839-0.321-2.724L505.131,195.562C505.131,195.562,505.131,195.562,505.131,195.562z"/>
					<path style="opacity:0.55;fill:#FFFFFF;" d="M506.821,217.475c-0.262-1.216-0.53-2.487-0.802-3.792
						c-10.53,2.674-43.295,2.66-53.604-0.04c-0.251,1.309-0.501,2.584-0.746,3.804C461.59,220.44,496.743,220.45,506.821,217.475z"
						/>
					<path style="opacity:0.55;fill:#FFFFFF;" d="M504.73,207.375c-0.264-1.315-0.527-2.634-0.785-3.94
						c-11.272,2.022-38.671,2.003-49.63-0.058c-0.235,1.308-0.474,2.63-0.715,3.948C464.446,209.581,493.606,209.597,504.73,207.375
						z"/>
					<path style="opacity:0.6;fill:#FFFFFF;" d="M478.027,239.263c0,0-4.94,18.221,0.003,34.185
						c0.662-3.81,1.155-8.195,2.148-12.428C480.178,261.021,476.308,252.33,478.027,239.263z"/>
				</g>
				
					<linearGradient id="SVGID_00000077290363886977370950000018240396484258116526_" gradientUnits="userSpaceOnUse" x1="479.3971" y1="97.81" x2="479.2736" y2="135.4441">
					<stop  offset="0" style="stop-color:#0E052B"/>
					<stop  offset="1" style="stop-color:#27078A"/>
				</linearGradient>
				<path style="fill:url(#SVGID_00000077290363886977370950000018240396484258116526_);" d="M480.85,118.331
					c-9.034-0.739-15.635,3.906-13.206,17.604l1.768-7.663c0.276-1.194,1.547-1.869,2.685-1.414
					c2.886,1.154,8.333,2.501,13.928-0.519c1.115-0.602,2.502,0.011,2.846,1.231c0.554,1.965,1.249,4.843,1.558,7.821l1.015-5.382
					C491.445,130.009,489.883,119.071,480.85,118.331z"/>
				
					<linearGradient id="SVGID_00000093894591661027047230000010318654144331544759_" gradientUnits="userSpaceOnUse" x1="478.6457" y1="97.8074" x2="478.5223" y2="135.4418">
					<stop  offset="0" style="stop-color:#0E052B"/>
					<stop  offset="1" style="stop-color:#27078A"/>
				</linearGradient>
				<path style="fill:url(#SVGID_00000093894591661027047230000010318654144331544759_);" d="M467.967,121.459
					c0,0-1.855-5.301,0.928-7.157c0,0,7.024,4.241,12.988,2.12c5.964-2.12,9.542,5.566,7.156,7.289
					C487.781,124.62,471.147,126.76,467.967,121.459z"/>
			</g>
			<g>
				
					<linearGradient id="SVGID_00000130608296609628259070000003010090543909473161_" gradientUnits="userSpaceOnUse" x1="560.7897" y1="342.5254" x2="560.7897" y2="368.1766">
					<stop  offset="0" style="stop-color:#FFEFB4"/>
					<stop  offset="1" style="stop-color:#FF9F33"/>
				</linearGradient>
				<path style="fill:url(#SVGID_00000130608296609628259070000003010090543909473161_);" d="M549.474,362.956
					c0,0-1.665,1.022-1.933,1.38c-0.268,0.358-0.57,3.814,5.294,2.33c0,0,3.008,0.526,6.909-1.262
					c3.901-1.788,10.59,0.608,13.319-1.545c2.729-2.152-0.421-5.444-1.262-7.655c-0.328-0.861-0.667-8.701-0.667-8.701l-8.453,1.644
					c0,0,0.231,6.418-0.776,7.202s-7.532,4.145-8.338,4.474C552.762,361.154,551.351,361.933,549.474,362.956z"/>
				
					<linearGradient id="SVGID_00000028310778863332529140000018443037814174880660_" gradientUnits="userSpaceOnUse" x1="66.8479" y1="342.5254" x2="66.8479" y2="368.1766" gradientTransform="matrix(-1 0 0 1 673.2031 0)">
					<stop  offset="0" style="stop-color:#FFEFB4"/>
					<stop  offset="1" style="stop-color:#FF9F33"/>
				</linearGradient>
				<path style="fill:url(#SVGID_00000028310778863332529140000018443037814174880660_);" d="M617.67,362.956
					c0,0,1.665,1.022,1.933,1.38c0.268,0.358,0.57,3.814-5.294,2.33c0,0-3.008,0.526-6.909-1.262
					c-3.901-1.788-10.59,0.608-13.319-1.545c-2.729-2.152,0.421-5.444,1.262-7.655c0.328-0.861,0.666-8.701,0.666-8.701l8.453,1.644
					c0,0-0.231,6.418,0.776,7.202s7.532,4.145,8.338,4.474C614.383,361.154,615.794,361.933,617.67,362.956z"/>
				
					<linearGradient id="SVGID_00000088822386182101339560000000525002271765020828_" gradientUnits="userSpaceOnUse" x1="583.2503" y1="188.7526" x2="583.2503" y2="324.7285">
					<stop  offset="0" style="stop-color:#0E052B"/>
					<stop  offset="1" style="stop-color:#27078A"/>
				</linearGradient>
				<path style="fill:url(#SVGID_00000088822386182101339560000000525002271765020828_);" d="M611.62,283.632
					c8.932-31.941,4.668-56.342,4.668-56.342h-64.885c-1.997,4.455-5.192,27.934,3.942,56.342c0,0-2.252,41.25,7.04,67.799
					c0,0,6.567,2.955,8.866-0.657c7.24-28.313,9.943-34.092,10.776-61.933c0.103-3.437,0.825-19.81,2.703-27.821
					c1.111,7.646,0.246,24.498,0.264,27.143c0.207,29.461,5.324,45.215,10.719,62.61c2.299,3.612,8.866,0.657,8.866,0.657
					C613.448,328.871,612.661,284.243,611.62,283.632z"/>
				<path style="opacity:0.6;fill:#FFFFFF;" d="M582.58,239.263c0,0-5.352,20.155,0.214,36.365
					c0.428-5.243,1.055-10.847,1.937-14.608c0,0,0,0,0,0c0,0,0,0,0,0C584.731,261.021,580.861,252.33,582.58,239.263z"/>
				
					<linearGradient id="SVGID_00000091016033811521472700000008557521313641142924_" gradientUnits="userSpaceOnUse" x1="581.9083" y1="96.6974" x2="583.389" y2="131.1234">
					<stop  offset="0" style="stop-color:#0E052B"/>
					<stop  offset="1" style="stop-color:#27078A"/>
				</linearGradient>
				<path style="fill:url(#SVGID_00000091016033811521472700000008557521313641142924_);" d="M597.133,129.576
					c0,8.019-6.183,14.52-13.81,14.52s-13.81-6.501-13.81-14.52c0-8.019,5.735-12.436,13.362-12.436
					C590.502,117.14,597.133,121.557,597.133,129.576z"/>
				
					<linearGradient id="SVGID_00000065071630666531898720000016558866426692178855_" gradientUnits="userSpaceOnUse" x1="548.6454" y1="155.427" x2="547.3515" y2="246.6457">
					<stop  offset="0" style="stop-color:#FFEFB4"/>
					<stop  offset="1" style="stop-color:#FF9F33"/>
				</linearGradient>
				<path style="fill:url(#SVGID_00000065071630666531898720000016558866426692178855_);" d="M542.025,194.141
					c0,0-3.015,26.459-0.451,42.804c0,0-1.818,17.483,4.807,24.037c0,0,1.603,0,1.282-3.205c0,0,2.564,5.769,4.166,3.205
					c1.602-2.564-7.408-9.82-5.128-12.82c2.883-3.794,3.205,8.974,4.807,4.807c1.603-4.166-4.807-16.986-4.807-16.986
					s11.615-34.664,7.769-44.279L542.025,194.141z"/>
				
					<linearGradient id="SVGID_00000158742962174681824740000005416037819780039811_" gradientUnits="userSpaceOnUse" x1="619.8204" y1="156.4948" x2="618.5272" y2="247.6632">
					<stop  offset="0" style="stop-color:#FFEFB4"/>
					<stop  offset="1" style="stop-color:#FF9F33"/>
				</linearGradient>
				<path style="fill:url(#SVGID_00000158742962174681824740000005416037819780039811_);" d="M624.941,194.141
					c0,0,3.015,26.459,0.452,42.804c0,0,1.818,17.483-4.807,24.037c0,0-1.603,0-1.282-3.205c0,0-2.564,5.769-4.166,3.205
					c-1.603-2.564,7.408-9.82,5.128-12.82c-2.883-3.794-3.205,8.974-4.807,4.807c-1.602-4.166,4.807-16.986,4.807-16.986
					s-11.615-34.664-7.769-44.279L624.941,194.141z"/>
				
					<linearGradient id="SVGID_00000129198389005355137850000008948434905572853182_" gradientUnits="userSpaceOnUse" x1="588.9134" y1="255.687" x2="576.3074" y2="112.8199">
					<stop  offset="0" style="stop-color:#FF7B00"/>
					<stop  offset="1" style="stop-color:#F50000"/>
				</linearGradient>
				<path style="fill:url(#SVGID_00000129198389005355137850000008948434905572853182_);" d="M607.118,161.731
					c-4.144-4.23-15.483-6.932-15.483-6.932l-8.152,0.978l-7.262-1.024c0,0-13.94,3.81-17.323,8.059
					c-0.398,0.5-14.191,4.128-16.873,31.329l13.469,3.913c0,0,4.81-5.255,6.793-14.565c0,0-8.275,34.67-10.883,43.801
					c0,0,0.718,0.335,1.989,0.825c11.478,4.417,49.428,4.417,60.906,0c1.271-0.489,1.989-0.825,1.989-0.825
					c-2.609-9.131-11.609-43.801-11.609-43.801c1.448,8.152,6.793,14.565,6.793,14.565l13.469-3.913
					C622.5,169.11,607.83,162.457,607.118,161.731z"/>
				
					<linearGradient id="SVGID_00000111878341525109043980000015302381918652877999_" gradientUnits="userSpaceOnUse" x1="574.2535" y1="133.9341" x2="587.5874" y2="164.7926">
					<stop  offset="0" style="stop-color:#0E052B"/>
					<stop  offset="1" style="stop-color:#27078A"/>
				</linearGradient>
				<path style="fill:url(#SVGID_00000111878341525109043980000015302381918652877999_);" d="M571.884,157.721
					c1.431,3.779,9.012,4.788,13.266,4.788c2.792,0,9.465-0.391,11.11-4.014c0.263-0.578,0.435-1.34,0.282-2.26
					c-2.763-0.925-4.906-1.436-4.906-1.436l-8.152,0.978l-7.262-1.024c0,0-1.944,0.532-4.556,1.419
					C571.615,156.765,571.72,157.288,571.884,157.721z"/>
				
					<linearGradient id="SVGID_00000075854945871239055280000011725723384867491483_" gradientUnits="userSpaceOnUse" x1="576.8881" y1="140.3249" x2="586.7134" y2="163.0635">
					<stop  offset="0" style="stop-color:#FFEFB4"/>
					<stop  offset="1" style="stop-color:#FF9F33"/>
				</linearGradient>
				<path style="fill:url(#SVGID_00000075854945871239055280000011725723384867491483_);" d="M575.946,154.788
					c1.455-1.286,3.368-3.54,3.95-6.838h10.109c0,0-0.577,3.537,2.515,7.073C600.399,164.038,567.366,162.37,575.946,154.788z"/>
				
					<linearGradient id="SVGID_00000042728979547908052150000008560698337360394150_" gradientUnits="userSpaceOnUse" x1="576.1313" y1="84.3627" x2="585.5801" y2="160.9473">
					<stop  offset="0" style="stop-color:#FFEFB4"/>
					<stop  offset="1" style="stop-color:#FF9F33"/>
				</linearGradient>
				<path style="opacity:0.65;fill:url(#SVGID_00000042728979547908052150000008560698337360394150_);" d="M590.005,147.951h-10.109
					c-0.266,1.509-0.817,2.789-1.47,3.869c1.315,0.994,2.87,1.857,4.722,2.523c0.905,0.325,1.904,0.31,2.793-0.057
					c1.136-0.468,2.785-1.363,4.449-2.981C589.777,149.369,590.005,147.951,590.005,147.951z"/>
				
					<linearGradient id="SVGID_00000163033375276870676210000016814125699659691450_" gradientUnits="userSpaceOnUse" x1="584.5826" y1="181.3352" x2="583.3357" y2="126.0562">
					<stop  offset="0" style="stop-color:#FFEFB4"/>
					<stop  offset="1" style="stop-color:#FF9F33"/>
				</linearGradient>
				<path style="fill:url(#SVGID_00000163033375276870676210000016814125699659691450_);" d="M597.473,130.907
					c-0.736-1.141-1.584,0.086-1.87,0.074c-0.671-1.934-2.944-10.69-12.878-10.205c-7.32,0.357-10.755,8.246-10.755,8.246
					s0.002,1.462-0.099,2.689c-0.431-0.548-1.221-1.571-2.129-0.803c-1.832,1.55-0.2,8.026,2.88,9.486
					c0.411,6.305,4.257,8.847,10.525,11.099c0.905,0.325,1.904,0.31,2.793-0.056c2.396-0.987,8.292-2.466,9.36-11.482
					C597.911,137.932,598.669,132.763,597.473,130.907z"/>
				
					<linearGradient id="SVGID_00000111869474603436521310000009114599951518380176_" gradientUnits="userSpaceOnUse" x1="544.72" y1="108.6314" x2="543.8475" y2="98.7435" gradientTransform="matrix(0.9464 0.323 -0.323 0.9464 67.982 -79.4226)">
					<stop  offset="0" style="stop-color:#0E052B"/>
					<stop  offset="1" style="stop-color:#27078A"/>
				</linearGradient>
				<path style="fill:url(#SVGID_00000111869474603436521310000009114599951518380176_);" d="M542.025,194.141l13.469,3.913
					c0,0,0.811-0.895,1.9-2.575c0,0,0,0,0,0l-15.049-4.116C542.228,192.262,542.119,193.183,542.025,194.141z"/>
				
					<linearGradient id="SVGID_00000158737159317984785780000004405739636324068764_" gradientUnits="userSpaceOnUse" x1="153.456" y1="242.385" x2="152.5825" y2="232.485" gradientTransform="matrix(-0.9464 0.323 0.323 0.9464 685.578 -79.4226)">
					<stop  offset="0" style="stop-color:#0E052B"/>
					<stop  offset="1" style="stop-color:#27078A"/>
				</linearGradient>
				<path style="fill:url(#SVGID_00000158737159317984785780000004405739636324068764_);" d="M609.684,195.562
					c0.049,0.076,0.095,0.143,0.143,0.215c0.1,0.151,0.198,0.299,0.292,0.436c0.062,0.091,0.121,0.176,0.18,0.261
					c0.076,0.109,0.149,0.214,0.219,0.312c0.052,0.072,0.104,0.147,0.152,0.213c0.08,0.11,0.153,0.209,0.222,0.303
					c0.062,0.084,0.119,0.159,0.172,0.229c0.05,0.066,0.102,0.134,0.143,0.187c0.032,0.041,0.06,0.077,0.087,0.111
					c0.034,0.043,0.068,0.087,0.092,0.116c0.014,0.018,0.032,0.04,0.043,0.053c0.021,0.025,0.043,0.053,0.043,0.053l13.469-3.913
					c-0.091-0.936-0.202-1.839-0.321-2.724L609.684,195.562C609.684,195.562,609.684,195.562,609.684,195.562z"/>
				
					<linearGradient id="SVGID_00000142883765186115713070000011895132764404160402_" gradientUnits="userSpaceOnUse" x1="583.9501" y1="97.81" x2="583.8266" y2="135.4441">
					<stop  offset="0" style="stop-color:#0E052B"/>
					<stop  offset="1" style="stop-color:#27078A"/>
				</linearGradient>
				<path style="fill:url(#SVGID_00000142883765186115713070000011895132764404160402_);" d="M585.403,118.331
					c-9.034-0.739-15.635,3.906-13.206,17.604l1.768-7.663c0.276-1.194,1.547-1.869,2.685-1.414
					c2.886,1.154,8.333,2.501,13.928-0.519c1.115-0.602,2.502,0.011,2.846,1.231c0.554,1.965,1.249,4.843,1.558,7.821l1.015-5.382
					C595.998,130.009,594.436,119.071,585.403,118.331z"/>
				
					<linearGradient id="SVGID_00000182495070457292012760000016294032061522770341_" gradientUnits="userSpaceOnUse" x1="583.1987" y1="97.8074" x2="583.0753" y2="135.4418">
					<stop  offset="0" style="stop-color:#0E052B"/>
					<stop  offset="1" style="stop-color:#27078A"/>
				</linearGradient>
				<path style="fill:url(#SVGID_00000182495070457292012760000016294032061522770341_);" d="M572.52,121.459
					c0,0-1.855-5.301,0.928-7.157c0,0,7.024,4.241,12.988,2.12c5.964-2.12,9.542,5.566,7.156,7.289
					C592.334,124.62,575.7,126.76,572.52,121.459z"/>
				<path style="opacity:0.55;fill:#FFFFFF;" d="M613.698,217.809c-0.327-1.222-0.667-2.498-1.017-3.814
					c-12.874,2.282-45.638,2.242-57.795-0.122c-0.328,1.313-0.648,2.588-0.957,3.808
					C565.777,220.327,601.09,220.369,613.698,217.809z"/>
				<path style="opacity:0.55;fill:#FFFFFF;" d="M611.003,207.658c-0.347-1.316-0.695-2.638-1.04-3.947
					c-13.148,1.669-40.005,1.633-52.54-0.11c-0.32,1.309-0.644,2.63-0.969,3.946C568.981,209.485,597.84,209.521,611.003,207.658z"
					/>
			</g>
		</g>
		<g>
			
				<linearGradient id="SVGID_00000183236979707102804790000008486893699143744932_" gradientUnits="userSpaceOnUse" x1="258.2132" y1="57.4686" x2="481.4103" y2="57.4686">
				<stop  offset="0" style="stop-color:#5E34FF"/>
				<stop  offset="1" style="stop-color:#0D96FF"/>
			</linearGradient>
			<path style="fill:url(#SVGID_00000183236979707102804790000008486893699143744932_);" d="M468.177,70.702H271.446
				c-7.308,0-13.233-5.925-13.233-13.233l0,0c0-7.308,5.925-13.233,13.233-13.233h196.731c7.308,0,13.233,5.925,13.233,13.233l0,0
				C481.41,64.777,475.486,70.702,468.177,70.702z"/>
		</g>
		<g>
			<g>
				
					<linearGradient id="SVGID_00000115476943798744158600000011974529433476176263_" gradientUnits="userSpaceOnUse" x1="125.0754" y1="314.635" x2="195.3344" y2="451.5187">
					<stop  offset="0.0681" style="stop-color:#FFFADD"/>
					<stop  offset="1" style="stop-color:#FFB96B"/>
				</linearGradient>
				
					<rect x="118.275" y="388.009" style="fill:url(#SVGID_00000115476943798744158600000011974529433476176263_);" width="102.69" height="26.824"/>
				
					<linearGradient id="SVGID_00000049221239267790375710000016281758077085415821_" gradientUnits="userSpaceOnUse" x1="125.0754" y1="369.571" x2="195.3344" y2="506.4547" gradientTransform="matrix(1 0 0 -1 0 884.6014)">
					<stop  offset="0" style="stop-color:#5E34FF"/>
					<stop  offset="1" style="stop-color:#0D96FF"/>
				</linearGradient>
				
					<rect x="118.275" y="414.833" style="fill:url(#SVGID_00000049221239267790375710000016281758077085415821_);" width="102.69" height="26.824"/>
			</g>
			<g>
				
					<linearGradient id="SVGID_00000076602192694493765710000014506240024017300656_" gradientUnits="userSpaceOnUse" x1="346.9509" y1="488.5017" x2="262.8349" y2="390.3663">
					<stop  offset="0" style="stop-color:#FFEFB4"/>
					<stop  offset="1" style="stop-color:#FF9F33"/>
				</linearGradient>
				
					<rect x="220.965" y="388.009" style="fill:url(#SVGID_00000076602192694493765710000014506240024017300656_);" width="102.69" height="26.824"/>
				
					<linearGradient id="SVGID_00000030455522585016791570000012554726993311821741_" gradientUnits="userSpaceOnUse" x1="112.5336" y1="369.571" x2="182.7926" y2="506.4547" gradientTransform="matrix(1 0 0 -1 115.2316 884.6014)">
					<stop  offset="0" style="stop-color:#5E34FF"/>
					<stop  offset="1" style="stop-color:#27078A"/>
				</linearGradient>
				
					<rect x="220.965" y="414.833" style="fill:url(#SVGID_00000030455522585016791570000012554726993311821741_);" width="102.69" height="26.824"/>
			</g>
			<g>
				
					<linearGradient id="SVGID_00000125596135949696180700000000109547210636604838_" gradientUnits="userSpaceOnUse" x1="99.9918" y1="314.635" x2="170.2508" y2="451.5187" gradientTransform="matrix(1 0 0 1 230.4632 0)">
					<stop  offset="0" style="stop-color:#FFB94D"/>
					<stop  offset="1" style="stop-color:#FF7700"/>
				</linearGradient>
				
					<rect x="323.655" y="388.009" style="fill:url(#SVGID_00000125596135949696180700000000109547210636604838_);" width="102.69" height="26.824"/>
				
					<linearGradient id="SVGID_00000147923578935463103060000012017806490056618150_" gradientUnits="userSpaceOnUse" x1="99.9918" y1="369.571" x2="170.2508" y2="506.4547" gradientTransform="matrix(1 0 0 -1 230.4632 884.6014)">
					<stop  offset="0" style="stop-color:#5E34FF"/>
					<stop  offset="1" style="stop-color:#0D96FF"/>
				</linearGradient>
				
					<rect x="323.655" y="414.833" style="fill:url(#SVGID_00000147923578935463103060000012017806490056618150_);" width="102.69" height="26.824"/>
			</g>
			<g>
				
					<linearGradient id="SVGID_00000120524081065801237770000003676664660714329259_" gradientUnits="userSpaceOnUse" x1="438.1454" y1="361.8764" x2="510.0564" y2="433.7875">
					<stop  offset="0" style="stop-color:#FF7B00"/>
					<stop  offset="1" style="stop-color:#FF4400"/>
				</linearGradient>
				
					<rect x="426.345" y="388.009" style="fill:url(#SVGID_00000120524081065801237770000003676664660714329259_);" width="102.69" height="26.824"/>
				
					<linearGradient id="SVGID_00000105398054877453859640000011294746234158389155_" gradientUnits="userSpaceOnUse" x1="87.45" y1="369.571" x2="157.709" y2="506.4547" gradientTransform="matrix(1 0 0 -1 345.6948 884.6014)">
					<stop  offset="0" style="stop-color:#5E34FF"/>
					<stop  offset="1" style="stop-color:#27078A"/>
				</linearGradient>
				
					<rect x="426.345" y="414.833" style="fill:url(#SVGID_00000105398054877453859640000011294746234158389155_);" width="102.69" height="26.824"/>
			</g>
			<g>
				
					<linearGradient id="SVGID_00000157301412031856681840000007681973025138949789_" gradientUnits="userSpaceOnUse" x1="619.716" y1="307.4951" x2="573.9197" y2="416.8455">
					<stop  offset="0" style="stop-color:#FF7B00"/>
					<stop  offset="1" style="stop-color:#F50000"/>
				</linearGradient>
				
					<rect x="529.035" y="388.009" style="fill:url(#SVGID_00000157301412031856681840000007681973025138949789_);" width="102.69" height="26.824"/>
				
					<linearGradient id="SVGID_00000137823661544907335580000010733697536368158381_" gradientUnits="userSpaceOnUse" x1="74.9082" y1="369.571" x2="145.1672" y2="506.4547" gradientTransform="matrix(1 0 0 -1 460.9264 884.6014)">
					<stop  offset="0" style="stop-color:#5E34FF"/>
					<stop  offset="1" style="stop-color:#0D96FF"/>
				</linearGradient>
				
					<rect x="529.035" y="414.833" style="fill:url(#SVGID_00000137823661544907335580000010733697536368158381_);" width="102.69" height="26.824"/>
			</g>
		</g>
	</g>
</g>
<g id="TEXT">
	<text transform="matrix(1 0 0 1 280.52 62.2754)" style="fill:#FFFFFF; font-family:'Montserrat-Bold'; font-size:13.9815px;">BODY MASS INDEX (BMI)</text>
	<text transform="matrix(1 0 0 1 134.3135 431.1348)" style="fill:#FFFFFF; font-family:'Montserrat-Bold'; font-size:8.9116px;">UNDERWEIGHT</text>
	<text transform="matrix(1 0 0 1 154.52 405.2041)" style="fill:#180150; font-family:'Montserrat-Bold'; font-size:11.5851px;">&lt;18.5</text>
	<text transform="matrix(1 0 0 1 231.8574 431.1348)" style="fill:#FFFFFF; font-family:'Montserrat-Bold'; font-size:8.9116px;">NORMAL WEIGHT</text>
	<text transform="matrix(1 0 0 1 245.8574 405.2041)" style="fill:#180150; font-family:'Montserrat-Bold'; font-size:11.5851px;">18.5-24.9</text>
	<g>
		<text transform="matrix(1 0 0 1 343.1865 431.1348)" style="fill:#FFFFFF; font-family:'Montserrat-Bold'; font-size:8.9116px;">OVERWEIGHT</text>
	</g>
	<text transform="matrix(1 0 0 1 353.54 405.2041)" style="fill:#180150; font-family:'Montserrat-Bold'; font-size:11.5851px;">25-29.9</text>
	<text transform="matrix(1 0 0 1 457.8047 431.1348)" style="fill:#FFFFFF; font-family:'Montserrat-Bold'; font-size:8.9116px;">OBESITY</text>
	<text transform="matrix(1 0 0 1 456.2295 405.2041)" style="fill:#180150; font-family:'Montserrat-Bold'; font-size:11.5851px;">30-39.9</text>
	<text transform="matrix(1 0 0 1 536.8389 431.1348)" style="fill:#FFFFFF; font-family:'Montserrat-Bold'; font-size:8.9116px;">EXTREME OBESITY</text>
	<text transform="matrix(1 0 0 1 570.2725 405.2041)" style="fill:#180150; font-family:'Montserrat-Bold'; font-size:11.5851px;">40&lt;</text>
</g>
</svg>
